<svg xmlns="http://www.w3.org/2000/svg" xmlns:xlink="http://www.w3.org/1999/xlink" width="500" zoomAndPan="magnify" viewBox="0 0 375 374.999991" height="500" preserveAspectRatio="xMidYMid meet" version="1.0"><defs><clipPath id="c2a3189dcb"><path d="M 13.363281 13.363281 L 361.363281 13.363281 L 361.363281 361.363281 L 13.363281 361.363281 Z M 13.363281 13.363281 " clip-rule="nonzero"/></clipPath><clipPath id="99c3a8138e"><path d="M 11.714844 11.714844 L 363.464844 11.714844 L 363.464844 363.464844 L 11.714844 363.464844 Z M 11.714844 11.714844 " clip-rule="nonzero"/></clipPath></defs><rect x="-37.5" width="450" fill="#ffffff" y="-37.499999" height="449.999989" fill-opacity="1"/><rect x="-37.5" width="450" fill="#ffffff" y="-37.499999" height="449.999989" fill-opacity="1"/><g clip-path="url(#c2a3189dcb)"><path fill="#879ede" d="M 187.496094 13.363281 C 91.449219 13.363281 13.363281 91.449219 13.363281 187.496094 C 13.363281 283.542969 91.449219 361.632812 187.496094 361.632812 C 283.542969 361.632812 361.632812 283.542969 361.632812 187.496094 C 361.632812 91.449219 283.542969 13.363281 187.496094 13.363281 Z M 294.15625 153.214844 L 155.933594 293.882812 C 149.40625 300.683594 138.792969 300.683594 132.265625 293.882812 L 69.683594 230.214844 C 59.617188 219.875 59.617188 203.277344 69.683594 192.9375 C 79.480469 182.871094 95.53125 182.871094 105.328125 192.9375 L 144.234375 232.390625 L 258.511719 115.9375 C 268.304688 105.871094 284.359375 105.871094 294.15625 115.9375 C 304.222656 126.277344 304.222656 143.148438 294.15625 153.214844 Z M 294.15625 153.214844 " fill-opacity="1" fill-rule="nonzero"/></g><g clip-path="url(#99c3a8138e)"><path fill="#2d2d2d" d="M 187.496094 363.277344 C 90.597656 363.277344 11.714844 284.390625 11.714844 187.496094 C 11.714844 90.597656 90.597656 11.714844 187.496094 11.714844 C 284.390625 11.714844 363.277344 90.597656 363.277344 187.496094 C 363.277344 284.390625 284.390625 363.277344 187.496094 363.277344 Z M 187.496094 14.3125 C 91.984375 14.3125 14.3125 91.984375 14.3125 187.496094 C 14.3125 283.007812 91.984375 360.679688 187.496094 360.679688 C 283.007812 360.679688 360.679688 283.007812 360.679688 187.496094 C 360.679688 91.984375 283.007812 14.3125 187.496094 14.3125 Z M 187.496094 14.3125 " fill-opacity="1" fill-rule="nonzero"/></g></svg>