<svg xmlns="http://www.w3.org/2000/svg" xmlns:xlink="http://www.w3.org/1999/xlink" width="500" zoomAndPan="magnify" viewBox="0 0 375 374.999991" height="500" preserveAspectRatio="xMidYMid meet" version="1.0"><defs><clipPath id="bc1ff36624"><path d="M 4.679688 4.679688 L 370.679688 4.679688 L 370.679688 370.679688 L 4.679688 370.679688 Z M 4.679688 4.679688 " clip-rule="nonzero"/></clipPath></defs><g clip-path="url(#bc1ff36624)"><path fill="#d20005" d="M 187.496094 4.691406 C 288.308594 4.691406 370.316406 86.695312 370.316406 187.496094 C 370.316406 288.300781 288.308594 370.304688 187.496094 370.304688 C 86.691406 370.304688 4.679688 288.300781 4.679688 187.496094 C 4.679688 86.695312 86.691406 4.691406 187.496094 4.691406 Z M 237.59375 115.773438 L 187.496094 165.867188 L 137.402344 115.765625 C 131.433594 109.796875 121.75 109.792969 115.773438 115.765625 C 109.800781 121.738281 109.800781 131.425781 115.773438 137.398438 L 165.867188 187.496094 L 115.769531 237.59375 C 109.796875 243.566406 109.796875 253.25 115.769531 259.222656 C 121.75 265.203125 131.425781 265.199219 137.402344 259.226562 L 187.496094 209.128906 L 237.59375 259.222656 C 243.5625 265.191406 253.25 265.199219 259.222656 259.226562 C 265.203125 253.246094 265.191406 243.5625 259.222656 237.59375 L 209.128906 187.496094 L 259.222656 137.402344 C 265.191406 131.4375 265.203125 121.75 259.222656 115.773438 C 253.25 109.796875 243.5625 109.800781 237.59375 115.773438 Z M 237.59375 115.773438 " fill-opacity="1" fill-rule="evenodd"/></g></svg>