<svg xmlns="http://www.w3.org/2000/svg" xmlns:xlink="http://www.w3.org/1999/xlink" width="500" zoomAndPan="magnify" viewBox="0 0 375 374.999991" height="500" preserveAspectRatio="xMidYMid meet" version="1.0"><defs><clipPath id="39620ad914"><path d="M 37.5 84 L 309 84 L 309 355.5 L 37.5 355.5 Z M 37.5 84 " clip-rule="nonzero"/></clipPath></defs><path fill="#ffffff" d="M 283.078125 43.421875 C 288.964844 37.535156 298.507812 37.535156 304.394531 43.421875 L 349.613281 88.640625 C 355.5 94.527344 355.5 104.070312 349.613281 109.957031 L 213.957031 245.609375 C 211.652344 247.917969 208.660156 249.414062 205.429688 249.875 L 152.675781 257.410156 C 147.980469 258.082031 143.242188 256.503906 139.886719 253.148438 C 136.53125 249.792969 134.953125 245.054688 135.625 240.359375 L 143.160156 187.605469 C 143.621094 184.375 145.117188 181.382812 147.425781 179.078125 Z M 172.292969 196.839844 L 168.308594 224.726562 L 196.195312 220.742188 L 317.640625 99.296875 L 293.738281 75.394531 Z M 172.292969 196.839844 " fill-opacity="1" fill-rule="evenodd"/><g clip-path="url(#39620ad914)"><path fill="#ffffff" d="M 90.253906 114.371094 C 77.769531 114.371094 67.644531 124.492188 67.644531 136.980469 L 67.644531 302.78125 C 67.644531 315.265625 77.769531 325.390625 90.253906 325.390625 L 256.054688 325.390625 C 268.542969 325.390625 278.664062 315.265625 278.664062 302.78125 L 278.664062 189.734375 L 308.808594 189.734375 L 308.808594 302.78125 C 308.808594 331.917969 285.191406 355.535156 256.054688 355.535156 L 90.253906 355.535156 C 61.117188 355.535156 37.5 331.917969 37.5 302.78125 L 37.5 136.980469 C 37.5 107.84375 61.117188 84.226562 90.253906 84.226562 L 203.300781 84.226562 L 203.300781 114.371094 Z M 90.253906 114.371094 " fill-opacity="1" fill-rule="evenodd"/></g></svg>