<svg xmlns="http://www.w3.org/2000/svg" xmlns:xlink="http://www.w3.org/1999/xlink" width="500" zoomAndPan="magnify" viewBox="0 0 375 374.999991" height="500" preserveAspectRatio="xMidYMid meet" version="1.0"><defs><clipPath id="5bb36a30e5"><path d="M 28.683594 47 L 289 47 L 289 368 L 28.683594 368 Z M 28.683594 47 " clip-rule="nonzero"/></clipPath></defs><g clip-path="url(#5bb36a30e5)"><path fill="#879ede" d="M 265.898438 367.667969 L 50.796875 367.667969 C 38.734375 367.667969 28.683594 357.617188 28.683594 345.554688 L 28.683594 69.140625 C 28.683594 57.078125 38.734375 47.027344 50.796875 47.027344 L 71.90625 47.027344 C 75.925781 47.027344 79.445312 50.542969 79.445312 54.566406 C 79.445312 58.585938 75.925781 62.105469 71.90625 62.105469 L 50.796875 62.105469 C 46.777344 62.105469 43.761719 65.117188 43.761719 69.140625 L 43.761719 345.554688 C 43.761719 349.574219 46.777344 352.589844 50.796875 352.589844 L 265.898438 352.589844 C 269.917969 352.589844 272.933594 349.574219 272.933594 345.554688 L 272.933594 250.066406 C 272.933594 246.042969 276.453125 242.527344 280.472656 242.527344 C 284.492188 242.527344 288.011719 246.042969 288.011719 250.066406 L 288.011719 345.554688 C 288.011719 358.117188 278.460938 367.667969 265.898438 367.667969 Z M 265.898438 367.667969 " fill-opacity="1" fill-rule="nonzero"/></g><path fill="#879ede" d="M 280.472656 96.78125 C 276.453125 96.78125 272.933594 93.261719 272.933594 89.242188 L 272.933594 69.140625 C 272.933594 65.117188 269.917969 62.105469 265.898438 62.105469 L 244.789062 62.105469 C 240.769531 62.105469 237.25 58.585938 237.25 54.566406 C 237.25 50.542969 240.769531 47.027344 244.789062 47.027344 L 265.898438 47.027344 C 277.960938 47.027344 288.011719 57.078125 288.011719 69.140625 L 288.011719 89.242188 C 288.011719 93.261719 284.996094 96.78125 280.472656 96.78125 Z M 280.472656 96.78125 " fill-opacity="1" fill-rule="nonzero"/><path fill="#879ede" d="M 207.597656 92.761719 L 109.09375 92.761719 C 101.554688 92.761719 95.023438 86.730469 95.023438 78.6875 L 95.023438 41.5 C 95.023438 33.960938 101.054688 27.425781 109.09375 27.425781 L 131.710938 27.425781 C 135.230469 15.867188 145.78125 7.324219 158.347656 7.324219 C 170.910156 7.324219 181.96875 15.867188 184.984375 27.425781 L 207.097656 27.425781 C 214.636719 27.425781 221.167969 33.457031 221.167969 41.5 L 221.167969 78.6875 C 221.671875 86.730469 215.640625 92.761719 207.597656 92.761719 Z M 110.601562 77.683594 L 206.59375 77.683594 L 206.59375 42.503906 L 178.953125 42.503906 C 174.933594 42.503906 171.414062 38.984375 171.414062 34.964844 C 171.414062 27.929688 165.886719 22.402344 158.851562 22.402344 C 151.8125 22.402344 146.285156 27.929688 146.285156 34.964844 C 146.285156 38.984375 142.765625 42.503906 138.746094 42.503906 L 110.601562 42.503906 Z M 110.601562 77.683594 " fill-opacity="1" fill-rule="nonzero"/><path fill="#879ede" d="M 127.691406 246.042969 L 76.929688 246.042969 L 76.929688 195.285156 L 127.691406 195.285156 Z M 92.007812 230.96875 L 112.613281 230.96875 L 112.613281 210.363281 L 92.007812 210.363281 Z M 92.007812 230.96875 " fill-opacity="1" fill-rule="nonzero"/><path fill="#879ede" d="M 189.507812 227.953125 L 157.34375 227.953125 C 153.320312 227.953125 149.804688 224.433594 149.804688 220.414062 C 149.804688 216.394531 153.320312 212.875 157.34375 212.875 L 189.507812 212.875 C 193.527344 212.875 197.046875 216.394531 197.046875 220.414062 C 197.046875 224.433594 193.527344 227.953125 189.507812 227.953125 Z M 189.507812 227.953125 " fill-opacity="1" fill-rule="nonzero"/><path fill="#879ede" d="M 127.691406 320.929688 L 76.929688 320.929688 L 76.929688 270.167969 L 127.691406 270.167969 Z M 92.007812 305.851562 L 112.613281 305.851562 L 112.613281 285.246094 L 92.007812 285.246094 Z M 92.007812 305.851562 " fill-opacity="1" fill-rule="nonzero"/><path fill="#879ede" d="M 127.691406 171.160156 L 76.929688 171.160156 L 76.929688 120.402344 L 127.691406 120.402344 Z M 92.007812 156.085938 L 112.613281 156.085938 L 112.613281 135.480469 L 92.007812 135.480469 Z M 92.007812 156.085938 " fill-opacity="1" fill-rule="nonzero"/><path fill="#879ede" d="M 232.226562 138.496094 L 156.839844 138.496094 C 152.820312 138.496094 149.300781 134.976562 149.300781 130.957031 C 149.300781 126.933594 152.820312 123.417969 156.839844 123.417969 L 232.226562 123.417969 C 236.246094 123.417969 239.761719 126.933594 239.761719 130.957031 C 239.761719 134.976562 236.75 138.496094 232.226562 138.496094 Z M 232.226562 138.496094 " fill-opacity="1" fill-rule="nonzero"/><path fill="#879ede" d="M 212.625 167.644531 L 157.34375 167.644531 C 153.320312 167.644531 149.804688 164.125 149.804688 160.105469 C 149.804688 156.085938 153.320312 152.566406 157.34375 152.566406 L 213.128906 152.566406 C 217.148438 152.566406 220.664062 156.085938 220.664062 160.105469 C 220.664062 164.125 217.148438 167.644531 212.625 167.644531 Z M 212.625 167.644531 " fill-opacity="1" fill-rule="nonzero"/><path fill="#879ede" d="M 190.511719 309.367188 C 189.003906 309.367188 187.496094 308.867188 186.492188 307.859375 C 183.976562 306.351562 182.46875 302.835938 183.476562 299.820312 L 192.523438 261.625 C 192.523438 260.621094 193.023438 259.613281 193.527344 259.113281 L 286.503906 122.914062 C 289.015625 119.398438 293.539062 118.390625 297.058594 120.90625 C 300.574219 123.417969 301.578125 127.941406 299.066406 131.457031 L 206.089844 267.152344 L 202.070312 284.742188 L 217.148438 274.691406 L 317.664062 127.4375 L 300.574219 115.878906 C 299.066406 114.875 297.558594 112.863281 297.558594 110.851562 C 297.058594 108.84375 297.558594 106.832031 298.5625 105.324219 L 308.113281 90.75 C 310.625 87.230469 315.148438 86.226562 318.667969 88.738281 L 341.785156 104.820312 C 345.304688 107.335938 346.308594 111.859375 343.796875 115.375 C 341.28125 118.894531 336.761719 119.898438 333.242188 117.386719 L 316.15625 105.828125 L 315.148438 107.335938 L 332.238281 118.894531 C 333.746094 119.898438 335.253906 121.910156 335.253906 123.917969 C 335.753906 125.929688 335.253906 127.941406 334.246094 129.449219 L 228.707031 283.738281 C 228.203125 284.742188 227.703125 285.246094 226.695312 285.746094 L 194.53125 308.363281 C 193.527344 308.867188 192.019531 309.367188 190.511719 309.367188 Z M 190.511719 309.367188 " fill-opacity="1" fill-rule="nonzero"/></svg>