<svg xmlns="http://www.w3.org/2000/svg" xmlns:xlink="http://www.w3.org/1999/xlink" width="500" zoomAndPan="magnify" viewBox="0 0 375 374.999991" height="500" preserveAspectRatio="xMidYMid meet" version="1.0"><defs><clipPath id="f08636590c"><path d="M 8.472656 8.472656 L 366.222656 8.472656 L 366.222656 366.222656 L 8.472656 366.222656 Z M 8.472656 8.472656 " clip-rule="nonzero"/></clipPath></defs><g clip-path="url(#f08636590c)"><path fill="#2d2d2d" d="M 187.5 8.472656 C 88.585938 8.472656 8.472656 88.585938 8.472656 187.5 C 8.472656 286.410156 88.585938 366.527344 187.5 366.527344 C 286.410156 366.527344 366.527344 286.410156 366.527344 187.5 C 366.527344 88.585938 286.410156 8.472656 187.5 8.472656 Z M 187.5 330.71875 C 108.367188 330.71875 44.277344 266.628906 44.277344 187.5 C 44.277344 108.367188 108.367188 44.277344 187.5 44.277344 C 266.628906 44.277344 330.71875 108.367188 330.71875 187.5 C 330.71875 266.628906 266.628906 330.71875 187.5 330.71875 Z M 187.5 330.71875 " fill-opacity="1" fill-rule="nonzero"/></g></svg>